<?xml version="1.0" encoding="UTF-8" standalone="no"?>
<!-- Created with Inkscape (http://www.inkscape.org/) -->

<svg
   xmlns:dc="http://purl.org/dc/elements/1.1/"
   xmlns:cc="http://creativecommons.org/ns#"
   xmlns:rdf="http://www.w3.org/1999/02/22-rdf-syntax-ns#"
   xmlns:svg="http://www.w3.org/2000/svg"
   xmlns="http://www.w3.org/2000/svg"
   xmlns:sodipodi="http://sodipodi.sourceforge.net/DTD/sodipodi-0.dtd"
   xmlns:inkscape="http://www.inkscape.org/namespaces/inkscape"
   width="488.87323"
   height="488.87323"
   id="svg2"
   version="1.1"
   inkscape:version="0.48.3.1 r9886"
   sodipodi:docname="drawing.svg">
  <defs
     id="defs4" />
  <sodipodi:namedview
     id="base"
     pagecolor="#ffffff"
     bordercolor="#666666"
     borderopacity="1.0"
     inkscape:pageopacity="0.0"
     inkscape:pageshadow="2"
     inkscape:zoom="0.7"
     inkscape:cx="117.61331"
     inkscape:cy="276.55942"
     inkscape:document-units="px"
     inkscape:current-layer="layer1"
     showgrid="false"
     inkscape:window-width="1440"
     inkscape:window-height="852"
     inkscape:window-x="1440"
     inkscape:window-y="26"
     inkscape:window-maximized="1"
     fit-margin-top="0"
     fit-margin-left="0"
     fit-margin-right="0"
     fit-margin-bottom="0" />
  <metadata
     id="metadata7">
    <rdf:RDF>
      <cc:Work
         rdf:about="">
        <dc:format>image/svg+xml</dc:format>
        <dc:type
           rdf:resource="http://purl.org/dc/dcmitype/StillImage" />
        <dc:title />
      </cc:Work>
    </rdf:RDF>
  </metadata>
  <g
     inkscape:label="Layer 1"
     inkscape:groupmode="layer"
     id="layer1"
     transform="translate(-147.50258,-266.48381)">
    <path
       sodipodi:type="arc"
       style="fill:#ff9955;fill-opacity:1;stroke:#000027;stroke-width:4;stroke-miterlimit:4;stroke-opacity:1;stroke-dasharray:none"
       id="path2987"
       sodipodi:cx="355.5737"
       sodipodi:cy="446.27066"
       sodipodi:rx="242.43661"
       sodipodi:ry="242.43661"
       d="m 598.01031,446.27066 c 0,133.89405 -108.54256,242.43662 -242.43661,242.43662 -133.89405,0 -242.43662,-108.54257 -242.43662,-242.43662 0,-133.89404 108.54257,-242.43661 242.43662,-242.43661 133.89405,0 242.43661,108.54257 242.43661,242.43661 z"
       transform="translate(36.365492,64.649763)" />
    <path
       sodipodi:type="arc"
       style="fill:#ffffff;fill-opacity:1;stroke:#000000;stroke-width:4;stroke-miterlimit:4;stroke-opacity:1;stroke-dasharray:none"
       id="path3757"
       sodipodi:cx="262.63965"
       sodipodi:cy="395.76303"
       sodipodi:rx="45.764912"
       sodipodi:ry="28.284271"
       d="m 308.40456,395.76303 c 0,15.62097 -20.48965,28.28427 -45.76491,28.28427 -25.27526,0 -45.76491,-12.6633 -45.76491,-28.28427 0,-15.62097 20.48965,-28.28427 45.76491,-28.28427 25.27526,0 45.76491,12.6633 45.76491,28.28427 z"
       transform="translate(34.345187,52.527932)" />
    <path
       sodipodi:type="arc"
       style="fill:#ffffff;stroke:#000000;stroke-width:4;stroke-miterlimit:4;stroke-opacity:1;stroke-dasharray:none"
       id="path3757-9"
       sodipodi:cx="262.63965"
       sodipodi:cy="395.76303"
       sodipodi:rx="45.764912"
       sodipodi:ry="28.284271"
       d="m 308.40456,395.76303 c 0,15.62097 -20.48965,28.28427 -45.76491,28.28427 -25.27526,0 -45.76491,-12.6633 -45.76491,-28.28427 0,-15.62097 20.48965,-28.28427 45.76491,-28.28427 25.27526,0 45.76491,12.6633 45.76491,28.28427 z"
       transform="translate(216.17266,56.56854)" />
    <path
       sodipodi:type="arc"
       style="fill:#aa4400;stroke:#000000;stroke-width:2.79955935;stroke-miterlimit:4;stroke-opacity:1;stroke-dasharray:none"
       id="path3777"
       sodipodi:cx="335.37064"
       sodipodi:cy="506.87982"
       sodipodi:rx="54.548237"
       sodipodi:ry="88.260902"
       d="m 389.91887,506.87982 c 0,48.74515 -24.42207,88.2609 -54.54823,88.2609 -30.12616,0 -54.54824,-39.51575 -54.54824,-88.2609 0,-48.74515 24.42208,-88.2609 54.54824,-88.2609 30.12616,0 54.54823,39.51575 54.54823,88.2609 z"
       transform="matrix(1.5736333,0,0,1.29729,-142.88229,-98.162375)" />
    <path
       style="fill:#000000;fill-opacity:1;stroke:#000000;stroke-width:0.04770378;stroke-miterlimit:4;stroke-opacity:1;stroke-dasharray:none"
       d="m 171.39247,292.23235 c -9.92243,12.54827 -4.39646,40.64332 13.93476,66.44305 16.16021,22.74422 37.38194,36.8287 52.66086,36.42903 0.0363,0.002 0.0716,0.005 0.10795,0.007 12.11224,0.46395 26.5917,-7.05418 37.09108,-20.49935 7.53748,-9.65266 11.53456,-20.4726 11.87803,-30.02878 5.39429,-16.02962 -14.93545,-39.17387 -46.48801,-52.45592 -23.58571,-9.92841 -46.94378,-11.59994 -60.64618,-5.60819 -1.78515,0.52149 -3.44459,1.28397 -4.95734,2.33589 -1.36006,0.94575 -2.55469,2.07939 -3.58115,3.37749 z"
       id="path3827"
       inkscape:connector-curvature="0" />
    <path
       sodipodi:type="arc"
       style="fill:#000000;fill-opacity:1;stroke:#000000;stroke-width:0.1;stroke-miterlimit:4;stroke-opacity:1;stroke-dasharray:none"
       id="path3757-7"
       sodipodi:cx="262.63965"
       sodipodi:cy="395.76303"
       sodipodi:rx="45.764912"
       sodipodi:ry="28.284271"
       d="m 308.40456,395.76303 c 0,15.62097 -20.48965,28.28427 -45.76491,28.28427 -25.27526,0 -45.76491,-12.6633 -45.76491,-28.28427 0,-15.62097 20.48965,-28.28427 45.76491,-28.28427 25.27526,0 45.76491,12.6633 45.76491,28.28427 z"
       transform="matrix(0.60323168,0,0,0.60801327,146.67412,218.73286)" />
    <path
       sodipodi:type="arc"
       style="fill:#000000;fill-opacity:1;stroke:#000000;stroke-width:0.1;stroke-miterlimit:4;stroke-opacity:1;stroke-dasharray:none"
       id="path3757-7-2"
       sodipodi:cx="262.63965"
       sodipodi:cy="395.76303"
       sodipodi:rx="45.764912"
       sodipodi:ry="28.284271"
       d="m 308.40456,395.76303 c 0,15.62097 -20.48965,28.28427 -45.76491,28.28427 -25.27526,0 -45.76491,-12.6633 -45.76491,-28.28427 0,-15.62097 20.48965,-28.28427 45.76491,-28.28427 25.27526,0 45.76491,12.6633 45.76491,28.28427 z"
       transform="matrix(0.60323168,0,0,0.60801327,306.19701,219.743)" />
    <path
       sodipodi:type="arc"
       style="fill:#000000;fill-opacity:1;stroke:#000000;stroke-width:0.1;stroke-miterlimit:4;stroke-opacity:1;stroke-dasharray:none"
       id="path3757-7-2-2"
       sodipodi:cx="262.63965"
       sodipodi:cy="395.76303"
       sodipodi:rx="45.764912"
       sodipodi:ry="28.284271"
       d="m 308.40456,395.76303 c 0,15.62097 -20.48965,28.28427 -45.76491,28.28427 -25.27526,0 -45.76491,-12.6633 -45.76491,-28.28427 0,-15.62097 20.48965,-28.28427 45.76491,-28.28427 25.27526,0 45.76491,12.6633 45.76491,28.28427 z"
       transform="matrix(0.60323168,0,0,0.60801327,227.44572,266.25064)" />
    <path
       style="fill:none;stroke:#000000;stroke-width:4;stroke-linecap:butt;stroke-linejoin:miter;stroke-miterlimit:4;stroke-opacity:1;stroke-dasharray:none"
       d="m 381.83766,529.10316 2.02031,105.05587"
       id="path3928"
       inkscape:connector-curvature="0" />
    <path
       style="fill:none;stroke:#000000;stroke-width:4;stroke-linecap:butt;stroke-linejoin:miter;stroke-miterlimit:4;stroke-opacity:1;stroke-dasharray:none"
       d="m 331.42857,624.50504 c 50.71429,48.57143 99.28572,4.28571 99.28572,4.28571"
       id="path3930"
       inkscape:connector-curvature="0" />
    <path
       style="fill:#000000;fill-opacity:1;stroke:#000000;stroke-width:0.04770378;stroke-miterlimit:4;stroke-opacity:1;stroke-dasharray:none"
       d="m 613.33626,292.23218 c 9.92243,12.54827 4.39646,40.64332 -13.93476,66.44305 -16.16021,22.74422 -37.38194,36.8287 -52.66086,36.42903 -0.0363,0.002 -0.0716,0.005 -0.10795,0.007 -12.11224,0.46395 -26.5917,-7.05418 -37.09108,-20.49935 -7.53748,-9.65266 -11.53456,-20.4726 -11.87803,-30.02878 -5.39429,-16.02962 14.93545,-39.17387 46.48801,-52.45592 23.58571,-9.92841 46.94378,-11.59994 60.64618,-5.60819 1.78515,0.52149 3.44459,1.28397 4.95734,2.33589 1.36006,0.94575 2.55469,2.07939 3.58115,3.37749 z"
       id="path3827-5"
       inkscape:connector-curvature="0" />
  </g>
</svg>
